<svg width="44" height="44" viewBox="0 0 44 44" fill="none" xmlns="http://www.w3.org/2000/svg">
<path d="M41.36 22.459C41.36 21.029 41.2317 19.654 40.9933 18.334H22V26.1348H32.8533C32.3858 28.6557 30.965 30.7915 28.8292 32.2215V37.2815H35.3467C39.16 33.7706 41.36 28.6007 41.36 22.459Z" fill="#4285F4"/>
<path d="M22.0002 42.167C27.4452 42.167 32.0102 40.3612 35.3468 37.2812L28.8293 32.2212C27.0235 33.4312 24.7135 34.1462 22.0002 34.1462C16.7477 34.1462 12.3018 30.5987 10.716 25.832H3.97852V31.057C7.29685 37.6479 14.1168 42.167 22.0002 42.167Z" fill="#34A853"/>
<path d="M10.716 25.8317C10.3127 24.6217 10.0835 23.3292 10.0835 22C10.0835 20.6709 10.3127 19.3784 10.716 18.1684V12.9434H3.9785C2.56683 15.7536 1.83225 18.8551 1.8335 22C1.8335 25.2542 2.61266 28.3342 3.9785 31.0567L10.716 25.8317Z" fill="#FBBC05"/>
<path d="M22.0002 9.85482C24.961 9.85482 27.6193 10.8723 29.7093 12.8707L35.4935 7.08648C32.001 3.83232 27.436 1.83398 22.0002 1.83398C14.1168 1.83398 7.29685 6.35315 3.97852 12.944L10.716 18.169C12.3018 13.4023 16.7477 9.85482 22.0002 9.85482Z" fill="#EA4335"/>
</svg>
